#!OML:ASF G:\JayActor3\Patient Classification 1\Patient 1\Session 6\male.ASF
:FULLY-SPECIFIED
:DEGREES
2384
root 2.43057 16.3007 -23.5647 171.634 -64.2978 -173.838
lowerback 3.44575 0.121228 2.77965
upperback -1.25592 0.317669 1.56362
thorax -3.21956 0.107762 0.0317242
lowerneck -2.72882 2.56628 3.83099
upperneck 7.16197 3.31957 -2.03532
head 2.87362 1.66467 -1.21083
rclavicle 1.75676e-014 9.14409e-015
rhumerus -21.9058 54.8809 -53.8854
rradius 105.023
rwrist -61.8317
rhand -28.0098 -5.20152
rfingers 7.12502
rthumb -1.39542 -35.1767
lclavicle 1.75676e-014 9.14409e-015
lhumerus -35.7791 -15.0532 68.1863
lradius 89.0414
lwrist 24.8931
lhand -1.23693 7.13769
lfingers 7.12502
lthumb 24.4051 35.6034
rfemur -8.06491 0.550138 16.9625
rtibia 33.9724
rfoot -24.5949 -14.1464
rtoes 3.37798
lfemur 2.43526 3.3534 -8.91
ltibia 17.6868
lfoot -14.5481 1.40469
ltoes -4.36621
2385
root 2.4383 16.3004 -23.5918 171.599 -64.5525 -173.832
lowerback 3.42279 0.0784517 2.81296
upperback -1.20918 0.260448 1.62261
thorax -3.15965 0.0796416 0.0772778
lowerneck -2.88488 2.48251 3.86969
upperneck 7.50233 3.20281 -2.11116
head 3.01767 1.60389 -1.24563
rclavicle 4.07509e-014 3.89618e-014
rhumerus -21.8515 54.7615 -53.7842
rradius 105.035
rwrist -61.7734
rhand -28.0137 -5.1755
rfingers 7.12502
rthumb -1.39918 -35.1507
lclavicle 4.07509e-014 3.89618e-014
lhumerus -35.9478 -15.1808 68.6278
lradius 87.8566
lwrist 24.8378
lhand -1.1718 7.21094
lfingers 7.12502
lthumb 24.4675 35.6682
rfemur -7.97497 0.370332 17.0283
rtibia 33.9938
rfoot -24.7122 -14.1619
rtoes 3.45028
lfemur 2.43236 3.16564 -8.84138
ltibia 17.6401
lfoot -14.4496 1.32513
ltoes -4.34666
2386
root 2.44684 16.3002 -23.6188 171.517 -64.8035 -173.769
lowerback 3.41166 0.0358359 2.86371
upperback -1.16964 0.204794 1.68993
thorax -3.11378 0.0517055 0.1215
lowerneck -3.03652 2.39524 3.91529
upperneck 7.853 3.08157 -2.1958
head 3.16546 1.54053 -1.28547
rclavicle -1.3418e-015 -1.27222e-014
rhumerus -21.8101 54.6417 -53.6903
rradius 105.05
rwrist -61.6982
rhand -28.0269 -5.14501
rfingers 7.12502
rthumb -1.41186 -35.1201
lclavicle -1.3418e-015 -1.27222e-014
lhumerus -36.1171 -15.2875 69.0705
lradius 86.669
lwrist 24.8214
lhand -1.07431 7.27368
lfingers 7.12502
lthumb 24.561 35.7183
rfemur -7.88917 0.197623 17.1238
rtibia 34.0069
rfoot -24.8277 -14.1848
rtoes 3.53853
lfemur 2.40839 2.98704 -8.74328
ltibia 17.6153
lfoot -14.3483 1.2398
ltoes -4.32993
2387
root 2.45616 16.3003 -23.6458 171.417 -65.0539 -173.679
lowerback 3.40953 -0.00682272 2.91853
upperback -1.13998 0.14982 1.76269
thorax -3.08315 0.0237673 0.168996
lowerneck -3.16938 2.30298 3.96894
upperneck 8.201 2.9548 -2.29578
head 3.30993 1.4739 -1.33293
rclavicle -1.80149e-014 7.95139e-015
rhumerus -21.7891 54.5234 -53.6066
rradius 105.073
rwrist -61.6053
rhand -28.0493 -5.11162
rfingers 7.12502
rthumb -1.43354 -35.0866
lclavicle -1.80149e-014 7.95139e-015
lhumerus -36.2904 -15.3914 69.5215
lradius 85.4784
lwrist 24.8069
lhand -1.01903 7.30321
lfingers 7.12502
lthumb 24.614 35.7406
rfemur -7.81166 0.033542 17.2363
rtibia 34.012
rfoot -24.9409 -14.2226
rtoes 3.62336
lfemur 2.36169 2.81692 -8.63012
ltibia 17.6074
lfoot -14.242 1.14919
ltoes -4.31584
2388
root 2.46585 16.3007 -23.6726 171.316 -65.3094 -173.585
lowerback 3.41365 -0.0502647 2.9701
upperback -1.11469 0.0939658 1.83696
thorax -3.06054 -0.00467835 0.219916
lowerneck -3.29375 2.20921 4.03063
upperneck 8.549 2.82678 -2.40909
head 3.45397 1.40619 -1.38718
rclavicle -5.25785e-014 -1.47101e-014
rhumerus -21.7797 54.4056 -53.5261
rradius 105.1
rwrist -61.4944
rhand -28.087 -5.05721
rfingers 7.12502
rthumb -1.46994 -35.0319
lclavicle -5.25785e-014 -1.47101e-014
lhumerus -36.4687 -15.4997 69.9787
lradius 84.2855
lwrist 24.7282
lhand -1.02507 7.24626
lfingers 7.12502
lthumb 24.6082 35.6844
rfemur -7.73507 -0.140109 17.3486
rtibia 34.0103
rfoot -25.0482 -14.2615
rtoes 3.70054
lfemur 2.3021 2.65421 -8.51565
ltibia 17.6085
lfoot -14.1293 1.05262
ltoes -4.31203
2389
root 2.47565 16.3013 -23.6994 171.223 -65.5706 -173.496
lowerback 3.4193 -0.0951696 3.01576
upperback -1.09201 0.0359715 1.91215
thorax -3.04147 -0.0341473 0.27523
lowerneck -3.41674 2.11589 4.09574
upperneck 8.899 2.69999 -2.53217
head 3.59951 1.33857 -1.44615
rclavicle 1.29955e-014 -5.96354e-015
rhumerus -21.7734 54.2839 -53.4445
rradius 105.127
rwrist -61.3699
rhand -28.1311 -4.99824
rfingers 7.12502
rthumb -1.51251 -34.9726
lclavicle 1.29955e-014 -5.96354e-015
lhumerus -36.6525 -15.6086 70.4411
lradius 83.0946
lwrist 24.5447
lhand -1.07428 7.1407
lfingers 7.12502
lthumb 24.561 35.5853
rfemur -7.6592 -0.314488 17.4579
rtibia 34.0037
rfoot -25.1576 -14.3055
rtoes 3.77975
lfemur 2.23334 2.50322 -8.40379
ltibia 17.6115
lfoot -14.0089 0.947476
ltoes -4.32002
2390
root 2.48541 16.3022 -23.726 171.148 -65.839 -173.427
lowerback 3.42885 -0.140685 3.05271
upperback -1.07186 -0.0230253 1.98535
thorax -3.02714 -0.0640235 0.333445
lowerneck -3.53744 2.02175 4.16096
upperneck 9.25116 2.5726 -2.66011
head 3.74616 1.27018 -1.50774
rclavicle 2.21893e-014 -3.1408e-014
rhumerus -21.7761 54.1584 -53.3652
rradius 105.153
rwrist -61.2366
rhand -28.1755 -4.92856
rfingers 7.12502
rthumb -1.55542 -34.9026
lclavicle 2.21893e-014 -3.1408e-014
lhumerus -36.8401 -15.7123 70.9046
lradius 81.906
lwrist 24.2239
lhand -1.12661 7.00537
lfingers 7.12502
lthumb 24.5109 35.4568
rfemur -7.58154 -0.504149 17.5532
rtibia 33.9936
rfoot -25.2644 -14.3394
rtoes 3.87116
lfemur 2.15987 2.36046 -8.30343
ltibia 17.6137
lfoot -13.8787 0.840751
ltoes -4.37097
2391
root 2.4952 16.3034 -23.7523 171.071 -66.1049 -173.354
lowerback 3.44018 -0.185101 3.09274
upperback -1.05354 -0.0803549 2.06052
thorax -3.01562 -0.0932056 0.3919
lowerneck -3.65801 1.9272 4.22361
upperneck 9.60454 2.44549 -2.79493
head 3.89404 1.20129 -1.57213
rclavicle -4.18939e-014 -2.38542e-015
rhumerus -21.7754 54.0299 -53.2799
rradius 105.173
rwrist -61.0966
rhand -28.2211 -4.8468
rfingers 7.12502
rthumb -1.59946 -34.8206
lclavicle -4.18939e-014 -2.38542e-015
lhumerus -37.0314 -15.7962 71.3672
lradius 80.7261
lwrist 23.7753
lhand -1.14525 6.88528
lfingers 7.12502
lthumb 24.493 35.3391
rfemur -7.50739 -0.696508 17.6486
rtibia 33.9809
rfoot -25.3685 -14.3682
rtoes 3.975
lfemur 2.08183 2.22173 -8.2036
ltibia 17.615
lfoot -13.7411 0.744907
ltoes -4.46758
2392
root 2.50507 16.3049 -23.7785 170.998 -66.3717 -173.282
lowerback 3.45497 -0.228291 3.13328
upperback -1.03639 -0.135891 2.13576
thorax -3.00714 -0.12157 0.450077
lowerneck -3.77656 1.83115 4.28442
upperneck 9.95627 2.31726 -2.93612
head 4.04171 1.13121 -1.63938
rclavicle 3.55079e-014 -2.8625e-014
rhumerus -21.7768 53.8926 -53.1935
rradius 105.188
rwrist -60.9544
rhand -28.2599 -4.76873
rfingers 7.12502
rthumb -1.63695 -34.7422
lclavicle 3.55079e-014 -2.8625e-014
lhumerus -37.2221 -15.8637 71.8313
lradius 79.5513
lwrist 23.2343
lhand -1.17516 6.78156
lfingers 7.12502
lthumb 24.4643 35.2393
rfemur -7.4348 -0.889911 17.7418
rtibia 33.9654
rfoot -25.4677 -14.3977
rtoes 4.07882
lfemur 1.99819 2.09423 -8.10522
ltibia 17.6178
lfoot -13.5924 0.651132
ltoes -4.64198
2393
root 2.5148 16.3065 -23.8044 170.933 -66.6405 -173.227
lowerback 3.47432 -0.270948 3.16985
upperback -1.01848 -0.190738 2.20916
thorax -3.00034 -0.149541 0.508586
lowerneck -3.88707 1.73008 4.34818
upperneck 10.3013 2.18394 -3.09258
head 4.18623 1.0578 -1.71362
rclavicle -1.80397e-014 2.98177e-014
rhumerus -21.786 53.7513 -53.11
rradius 105.2
rwrist -60.8091
rhand -28.2951 -4.69089
rfingers 7.12502
rthumb -1.67095 -34.6641
lclavicle -1.80397e-014 2.98177e-014
lhumerus -37.4138 -15.9136 72.2984
lradius 78.3839
lwrist 22.6879
lhand -1.20332 6.74579
lfingers 7.12502
lthumb 24.4373 35.2071
rfemur -7.35502 -1.08206 17.8251
rtibia 33.9472
rfoot -25.5651 -14.4277
rtoes 4.18473
lfemur 1.91682 1.97197 -8.0158
ltibia 17.6253
lfoot -13.4365 0.558438
ltoes -4.87319
2394
root 2.5248 16.3083 -23.8303 170.872 -66.9127 -173.178
lowerback 3.49907 -0.313309 3.20552
upperback -1.00259 -0.244934 2.28121
thorax -2.9986 -0.177253 0.566254
lowerneck -3.98876 1.62773 4.41391
upperneck 10.6409 2.05029 -3.26002
head 4.32796 0.983522 -1.79305
rclavicle 3.54582e-014 -2.34566e-014
rhumerus -21.8081 53.6018 -53.0351
rradius 105.21
rwrist -60.6641
rhand -28.3178 -4.6229
rfingers 7.12502
rthumb -1.69286 -34.5959
lclavicle 3.54582e-014 -2.34566e-014
lhumerus -37.61 -15.9455 72.7668
lradius 77.2294
lwrist 22.1973
lhand -1.25443 6.76923
lfingers 7.12502
lthumb 24.3883 35.2372
rfemur -7.27546 -1.26833 17.906
rtibia 33.9261
rfoot -25.657 -14.4718
rtoes 4.26981
lfemur 1.82986 1.85507 -7.92907
ltibia 17.6373
lfoot -13.2687 0.461451
ltoes -5.14661
2395
root 2.53499 16.3104 -23.8561 170.822 -67.1832 -173.144
lowerback 3.52527 -0.354193 3.23708
upperback -0.983908 -0.297396 2.35061
thorax -2.99467 -0.20399 0.623413
lowerneck -4.08453 1.51956 4.48451
upperneck 10.974 1.91088 -3.44737
head 4.46689 0.905377 -1.88158
rclavicle -4.52484e-014 -3.4191e-014
rhumerus -21.8382 53.4416 -52.9657
rradius 105.22
rwrist -60.5171
rhand -28.3284 -4.5637
rfingers 7.12502
rthumb -1.70312 -34.5367
lclavicle -4.52484e-014 -3.4191e-014
lhumerus -37.7991 -15.9564 73.2286
lradius 76.0817
lwrist 21.8047
lhand -1.29335 6.86519
lfingers 7.12502
lthumb 24.351 35.3382
rfemur -7.1938 -1.43629 17.9833
rtibia 33.9031
rfoot -25.7484 -14.5336
rtoes 4.33676
lfemur 1.7434 1.74331 -7.84817
ltibia 17.6535
lfoot -13.0926 0.363192
ltoes -5.45159
2396
root 2.54549 16.3127 -23.8818 170.784 -67.4519 -173.129
lowerback 3.55494 -0.392679 3.26486
upperback -0.961784 -0.346798 2.41548
thorax -2.98903 -0.229092 0.677869
lowerneck -4.13013 1.40574 4.55432
upperneck 11.6259 1.79529 -3.80196
head 4.22561 0.815182 -1.82876
rclavicle 6.63941e-014 4.85035e-014
rhumerus -21.8717 53.2744 -52.8998
rradius 105.227
rwrist -60.3675
rhand -28.3319 -4.50885
rfingers 7.12502
rthumb -1.70645 -34.4818
lclavicle 6.63941e-014 4.85035e-014
lhumerus -37.9755 -15.9536 73.6796
lradius 74.935
lwrist 21.5434
lhand -1.32337 7.00942
lfingers 7.12502
lthumb 24.3222 35.4862
rfemur -7.11049 -1.59554 18.054
rtibia 33.8791
rfoot -25.8333 -14.6077
rtoes 4.37896
lfemur 1.65782 1.63243 -7.77463
ltibia 17.6742
lfoot -12.9097 0.263204
ltoes -5.74835
2397
root 2.55615 16.315 -23.9076 170.755 -67.7163 -173.129
lowerback 3.58846 -0.428437 3.29117
upperback -0.934741 -0.392641 2.47676
thorax -2.98037 -0.252338 0.729246
lowerneck -4.22615 1.29352 4.64339
upperneck 11.9645 1.65762 -4.04603
head 4.34097 0.733235 -1.92659
rclavicle -4.98453e-014 1.43125e-014
rhumerus -21.9023 53.0976 -52.8344
rradius 105.231
rwrist -60.2185
rhand -28.3396 -4.45704
rfingers 7.12502
rthumb -1.71387 -34.4299
lclavicle -4.98453e-014 1.43125e-014
lhumerus -38.1409 -15.9427 74.1191
lradius 73.7858
lwrist 21.4163
lhand -1.35288 7.16828
lfingers 7.12502
lthumb 24.2939 35.6489
rfemur -7.02361 -1.7367 18.122
rtibia 33.856
rfoot -25.9231 -14.6944
rtoes 4.41971
lfemur 1.5761 1.53219 -7.70461
ltibia 17.6987
lfoot -12.7227 0.154759
ltoes -6.02248
